<svg xmlns="http://www.w3.org/2000/svg" viewBox="0 0 36 32">
<style>
    path{
        fill:#fff;
    }
</style>
<title>icon-camera</title><g id="레이어_2" data-name="레이어 2"
><g id="레이어_1-2" data-name="레이어 1">
<path d="M34,10V30H2V10H34m0-2H2a2,2,0,0,0-2,2V30a2,2,0,0,0,2,2H34a2,2,0,0,0,2-2V10a2,2,0,0,0-2-2Z"/><path d="M28,2V4H8V2H28m0-2H8A2,2,0,0,0,6,2V4A2,2,0,0,0,8,6H28a2,2,0,0,0,2-2V2a2,2,0,0,0-2-2Z"/><path d="M18,16a4,4,0,1,1-4,4,4,4,0,0,1,4-4m0-2a6,6,0,1,0,6,6,6,6,0,0,0-6-6Z"/>
</g></g></svg>