<svg xmlns="http://www.w3.org/2000/svg" viewBox="0 0 36 34.33"><defs><style>.cls-1{fill:#f24062;}</style></defs><title>icon-.star</title><g id="레이어_2" data-name="레이어 2"><g id="레이어_1-2" data-name="레이어 1"><path class="cls-1" d="M18.83.51l4.85,9.83a.9.9,0,0,0,.69.5l10.84,1.58A.92.92,0,0,1,35.72,14l-7.84,7.65a.91.91,0,0,0-.27.81l1.85,10.8a.92.92,0,0,1-1.34,1l-9.69-5.1a.93.93,0,0,0-.86,0l-9.69,5.1a.92.92,0,0,1-1.34-1l1.85-10.8a.91.91,0,0,0-.27-.81L.28,14a.92.92,0,0,1,.51-1.57l10.84-1.58a.9.9,0,0,0,.69-.5L17.17.51A.93.93,0,0,1,18.83.51Z"/></g></g></svg>