<svg xmlns="http://www.w3.org/2000/svg" viewBox="0 0 32 32"><title>icon-share</title><g id="레이어_2" data-name="레이어 2"><g id="레이어_1-2" data-name="레이어 1"><path d="M27,11a5,5,0,0,0-3.92,1.92L9.81,6.29A5,5,0,0,0,10,5,5,5,0,1,0,8.92,8.08l13.27,6.63A5,5,0,0,0,22,16a5,5,0,0,0,.19,1.29L8.92,23.92a5.26,5.26,0,1,0,.89,1.79l13.27-6.63A5,5,0,1,0,27,11ZM8,5.36A2.87,2.87,0,1,1,8,5,2.2,2.2,0,0,1,8,5.36ZM5,30a3,3,0,1,1,3-3.36A2.2,2.2,0,0,1,8,27,3,3,0,0,1,5,30ZM27,19a3,3,0,0,1-3-2.64v-.72A3,3,0,1,1,27,19Z"/></g></g></svg>