<svg xmlns="http://www.w3.org/2000/svg" viewBox="0 0 36 36">
<style>
    path{
        fill:#94268f;
    }
</style>
<title>icon-home</title>
<g id="레이어_2" data-name="레이어 2">
<g id="레이어_1-2" data-name="레이어 1">
<path d="M36 13a3.76 3.76.0 0 0-1.29-2.8l-4.17-9A2 2 0 0 0 28.72.0H7.28A2 2 0 0 0 5.46 1.16l-4.17 9A3.76 3.76.0 0 0 0 13a3.87 3.87.0 0 0 2 3.32V34.17A1.81 1.81.0 0 0 3.78 36H32.22A1.81 1.81.0 0 0 34 34.17V16.32A3.87 3.87.0 0 0 36 13zM7.28 2H28.72L31 7H5zM12 34V24H24V34zm20.22.17H26A.88.88.0 0 0 26 34V24a2 2 0 0 0-2-2H12a2 2 0 0 0-2 2V34a.88.88.0 0 0 0 .17H3.78V16.94A5.52 5.52.0 0 0 4.5 17 4.27 4.27.0 0 0 9 13a4.27 4.27.0 0 0 4.5 4A4.27 4.27.0 0 0 18 13a4.27 4.27.0 0 0 4.5 4A4.27 4.27.0 0 0 27 13a4.27 4.27.0 0 0 4.5 4 5.52 5.52.0 0 0 .72-.06zM31.5 15A2.3 2.3.0 0 1 29 13a2 2 0 0 0-4 0 2.3 2.3.0 0 1-2.5 2A2.3 2.3.0 0 1 20 13a2 2 0 0 0-4 0 2.3 2.3.0 0 1-2.5 2A2.3 2.3.0 0 1 11 13a2 2 0 0 0-4 0 2.3 2.3.0 0 1-2.5 2A2.3 2.3.0 0 1 2 13a1.85 1.85.0 0 1 .63-1.32l.31-.27L3.11 11l.94-2H32l.94 2 .17.37.31.27A1.85 1.85.0 0 1 34 13a2.3 2.3.0 0 1-2.5 2z"/>
</g>
</g>
</svg>