<svg xmlns="http://www.w3.org/2000/svg" viewBox="0 0 36 32"><title>icon-heart</title><g fill='red' id="레이어_2" data-name="레이어 2"><g fill-rule="nonzero" fill='red' id="레이어_1-2" data-name="레이어 1"><path fill='red' d="M26.4,2C30.59,2,34,5.89,34,10.67c0,9.46-12.51,17.11-16,19.06C14.51,27.78,2,20.15,2,10.67,2,5.89,5.41,2,9.6,2a7.53,7.53,0,0,1,6.61,4.4L18,10,19.79,6.4A7.53,7.53,0,0,1,26.4,2m0-2A9.49,9.49,0,0,0,18,5.51,9.49,9.49,0,0,0,9.6,0C4.3,0,0,4.78,0,10.67,0,23,18,32,18,32s18-9,18-21.33C36,4.78,31.7,0,26.4,0Z"/></g></g></svg>