<svg xmlns="http://www.w3.org/2000/svg" viewBox="0 0 36 34"><title>icon-newsfeed</title><g id="레이어_2" data-name="레이어 2"><g id="레이어_1-2" data-name="레이어 1"><path d="M34 14V32H2V14H34m0-2H2a2 2 0 0 0-2 2V32a2 2 0 0 0 2 2H34a2 2 0 0 0 2-2V14a2 2 0 0 0-2-2z"/><rect x="4" y="6" width="28" height="2" rx="1"/><path d="M31 6H5A1 1 0 0 0 5 8H31a1 1 0 0 0 0-2z"/><rect x="11" width="14" height="2" rx="1"/><path d="M24 0H12a1 1 0 0 0 0 2H24a1 1 0 0 0 0-2z"/><path d="M14 20v6H8V20h6m0-2H8a2 2 0 0 0-2 2v6a2 2 0 0 0 2 2h6a2 2 0 0 0 2-2V20a2 2 0 0 0-2-2z"/></g></g></svg>