<svg xmlns="http://www.w3.org/2000/svg" viewBox="0 0 35.38 36"><title>icon-bascket</title><g id="레이어_2" data-name="레이어 2"><g id="레이어_1-2" data-name="레이어 1"><path d="M10.38 30a3 3 0 1 0 3 3 3 3 0 0 0-3-3zm0 4a1 1 0 1 1 1-1 1 1 0 0 1-1 1z"/><path d="M26.38 30a3 3 0 1 0 3 3 3 3 0 0 0-3-3zm0 4a1 1 0 1 1 1-1 1 1 0 0 1-1 1z"/><path d="M34.38.0h-4a1 1 0 0 0-1 1V8h-.19H2A2 2 0 0 0 .07 10.53L7 26.53A2 2 0 0 0 8.91 28H27.56a2 2 0 0 0 2-1.82l1.59-15.54a1 1 0 0 0 .24-.64V2h3a1 1 0 0 0 0-2zM8.91 26v-.14-.13L2 10H29.19l-.41 4h-6.4a1 1 0 1 0 0 2h6.2l-.41 4H21.38a1 1 0 1 0 0 2H28l-.41 4z"/></g></g></svg>