<svg xmlns="http://www.w3.org/2000/svg" viewBox="0 0 36 24">
<style>
    path{
        fill:#787878;
    }
</style>
<title>icon-view</title><g id="레이어_2" data-name="레이어 2">
<g id="레이어_1-2" data-name="레이어 1">
<path d="M18,0C8.06,0,0,10.29,0,12S8.06,24,18,24,36,13.71,36,12,27.94,0,18,0Zm6,12c0,5.42-2.75,10-6,10s-6-4.58-6-10S14.75,2,18,2,24,6.58,24,12ZM2.08,12c.82-1.67,5-6.63,10.55-8.87A15.15,15.15,0,0,0,10,12a15.15,15.15,0,0,0,2.63,8.87C7.11,18.63,2.9,13.67,2.08,12Zm21.29,8.87A15.15,15.15,0,0,0,26,12a15.15,15.15,0,0,0-2.63-8.87c5.52,2.24,9.73,7.2,10.55,8.87C33.1,13.67,28.89,18.63,23.37,20.87Z"/>
</g>
</g>
</svg>