<svg xmlns="http://www.w3.org/2000/svg" viewBox="0 0 36.04 35.84"><title>icon-write</title><g id="레이어_2" data-name="레이어 2"><g id="레이어_1-2" data-name="레이어 1"><path d="M31.21,2,34,4.83,18.91,20l-3.53.7.7-3.53L31.21,2h0m0-2A2,2,0,0,0,29.8.59L14.67,15.71a2,2,0,0,0-.55,1l-.71,3.53a2,2,0,0,0,2,2.39,1.87,1.87,0,0,0,.4,0l3.53-.7a2,2,0,0,0,1-.55L35.45,6.24a2,2,0,0,0,0-2.83L32.62.59A2,2,0,0,0,31.21,0Z"/><path d="M30,35.84H2a2,2,0,0,1-2-2v-27a2,2,0,0,1,2-2H16a1,1,0,0,1,1,1h0a1,1,0,0,1-1,1H2V33.9H30V20.34a1,1,0,0,1,1-1H31a1,1,0,0,1,1,1v13.5A2,2,0,0,1,30,35.84Z"/></g></g></svg>